<svg width="71" height="13" viewBox="0 0 71 13" fill="none" xmlns="http://www.w3.org/2000/svg">
<path d="M0.409091 12V0.363636H1.81818V10.75H7.22727V12H0.409091ZM18.7741 6.18182C18.7741 7.40909 18.5526 8.4697 18.1094 9.36364C17.6662 10.2576 17.0582 10.947 16.2855 11.4318C15.5128 11.9167 14.6302 12.1591 13.6378 12.1591C12.6454 12.1591 11.7628 11.9167 10.9901 11.4318C10.2173 10.947 9.60938 10.2576 9.16619 9.36364C8.72301 8.4697 8.50142 7.40909 8.50142 6.18182C8.50142 4.95455 8.72301 3.89394 9.16619 3C9.60938 2.10606 10.2173 1.41667 10.9901 0.931818C11.7628 0.446969 12.6454 0.204545 13.6378 0.204545C14.6302 0.204545 15.5128 0.446969 16.2855 0.931818C17.0582 1.41667 17.6662 2.10606 18.1094 3C18.5526 3.89394 18.7741 4.95455 18.7741 6.18182ZM17.4105 6.18182C17.4105 5.17424 17.242 4.32386 16.9048 3.63068C16.5715 2.9375 16.1188 2.41288 15.5469 2.05682C14.9787 1.70076 14.3423 1.52273 13.6378 1.52273C12.9332 1.52273 12.295 1.70076 11.723 2.05682C11.1548 2.41288 10.7022 2.9375 10.3651 3.63068C10.0317 4.32386 9.86506 5.17424 9.86506 6.18182C9.86506 7.18939 10.0317 8.03977 10.3651 8.73295C10.7022 9.42614 11.1548 9.95076 11.723 10.3068C12.295 10.6629 12.9332 10.8409 13.6378 10.8409C14.3423 10.8409 14.9787 10.6629 15.5469 10.3068C16.1188 9.95076 16.5715 9.42614 16.9048 8.73295C17.242 8.03977 17.4105 7.18939 17.4105 6.18182ZM25.598 0.363636H27.0071V8.68182C27.0071 9.42424 26.8707 10.0549 26.598 10.5739C26.3253 11.0928 25.9408 11.4867 25.4446 11.7557C24.9484 12.0246 24.3632 12.1591 23.6889 12.1591C23.0526 12.1591 22.4863 12.0436 21.9901 11.8125C21.4938 11.5777 21.1037 11.2443 20.8196 10.8125C20.5355 10.3807 20.3935 9.86742 20.3935 9.27273H21.7798C21.7798 9.60227 21.8613 9.89015 22.0241 10.1364C22.1908 10.3788 22.4181 10.5682 22.706 10.7045C22.9938 10.8409 23.3215 10.9091 23.6889 10.9091C24.0942 10.9091 24.4389 10.8239 24.723 10.6534C25.0071 10.483 25.223 10.233 25.3707 9.90341C25.5223 9.57008 25.598 9.16288 25.598 8.68182V0.363636ZM30.3082 12H28.831L33.1037 0.363636H34.5582L38.831 12H37.3537L33.8764 2.20455H33.7855L30.3082 12ZM30.8537 7.45455H36.8082V8.70455H30.8537V7.45455Z" fill="#959595"/>
<path d="M40.2457 12V0.363636H44.8366C45.7192 0.363636 46.4711 0.532197 47.0923 0.869318C47.7135 1.20265 48.187 1.66667 48.5128 2.26136C48.8423 2.85227 49.0071 3.53409 49.0071 4.30682C49.0071 5.07955 48.8404 5.76136 48.5071 6.35227C48.1738 6.94318 47.6908 7.40341 47.0582 7.73295C46.4295 8.0625 45.6681 8.22727 44.7741 8.22727H41.848V6.25568H44.3764C44.8499 6.25568 45.2401 6.17424 45.5469 6.01136C45.8575 5.8447 46.0885 5.61553 46.2401 5.32386C46.3954 5.02841 46.473 4.68939 46.473 4.30682C46.473 3.92045 46.3954 3.58333 46.2401 3.29545C46.0885 3.00379 45.8575 2.77841 45.5469 2.61932C45.2363 2.45644 44.8423 2.375 44.3651 2.375H42.706V12H40.2457ZM51.267 12H48.6307L52.6477 0.363636H55.8182L59.8295 12H57.1932L54.2784 3.02273H54.1875L51.267 12ZM51.1023 7.42614H57.3295V9.34659H51.1023V7.42614ZM59.3608 0.363636H62.1165L64.7699 5.375H64.8835L67.5369 0.363636H70.2926L66.0483 7.88636V12H63.6051V7.88636L59.3608 0.363636Z" fill="white"/>
</svg>
